<svg width="312" height="80" viewBox="0 0 312 80" fill="none" xmlns="http://www.w3.org/2000/svg">
<path fill-rule="evenodd" clip-rule="evenodd" d="M4.44444 35.5556L17.7778 48.8889L31.1111 35.5556L17.7778 22.2223L4.44444 35.5556ZM17.7778 17.7778L35.5556 35.5556L17.7778 53.3334L0 35.5556L17.7778 17.7778Z" fill="#F64E60"/>
<path fill-rule="evenodd" clip-rule="evenodd" d="M17.7776 40.0001L22.222 35.5556L17.7776 31.1112L13.3331 35.5556L17.7776 40.0001ZM8.88867 35.5556L17.7776 26.6667L26.6664 35.5556L17.7776 44.4445L8.88867 35.5556Z" fill="#F64E60"/>
<path fill-rule="evenodd" clip-rule="evenodd" d="M57.7778 57.7779L40.0001 40.0001L22.2223 57.7779L40.0001 75.5557L57.7778 57.7779ZM62.2223 57.7779L40.0001 80.0001L17.7778 57.7779L40.0001 35.5557L62.2223 57.7779Z" fill="#F64E60"/>
<path fill-rule="evenodd" clip-rule="evenodd" d="M48.8887 57.7777L39.9998 48.8888L31.1109 57.7777L39.9998 66.6666L48.8887 57.7777ZM53.3332 57.7777L39.9998 71.111L26.6665 57.7777L39.9998 44.4443L53.3332 57.7777Z" fill="#F64E60"/>
<path fill-rule="evenodd" clip-rule="evenodd" d="M44.4446 57.7777L40.0001 62.2221L35.5557 57.7777L40.0001 53.3333L44.4446 57.7777Z" fill="#F64E60"/>
<path fill-rule="evenodd" clip-rule="evenodd" d="M31.1109 13.3333L39.9998 22.2222L48.8887 13.3333L39.9998 4.44445L31.1109 13.3333ZM26.6665 13.3333L39.9998 0L53.3332 13.3333L39.9998 26.6667L26.6665 13.3333Z" fill="#F64E60"/>
<path fill-rule="evenodd" clip-rule="evenodd" d="M35.5557 13.3334L40.0001 8.88892L44.4446 13.3334L40.0001 17.7778L35.5557 13.3334Z" fill="#F64E60"/>
<path fill-rule="evenodd" clip-rule="evenodd" d="M62.2224 31.1112L57.7779 35.5556L62.2224 40.0001L66.6668 35.5556L62.2224 31.1112ZM71.1113 35.5556L62.2224 44.4445L53.3335 35.5556L62.2224 26.6667L71.1113 35.5556Z" fill="#F64E60"/>
<path d="M96 40.0689C96 30.0104 102.614 22.501 112.603 22.501C114.808 22.501 119.148 23.6722 120.319 25.3257V7H130.585V57.0167H120.319V54.7432C119.079 56.3278 115.566 57.5679 113.292 57.5679C103.303 57.5679 96 50.1274 96 40.0689V40.0689ZM106.265 40.0689C106.265 45.4426 109.71 49.8518 113.981 49.8518C118.666 49.8518 121.697 44.6159 121.697 40.0689C121.697 35.5219 118.735 30.2171 113.981 30.2171C109.71 30.2171 106.265 34.6263 106.265 40.0689V40.0689ZM163.611 34.3507V43.0313H136.743V34.3507H163.611ZM178.932 33.7307C178.932 37.7954 196.155 35.8664 196.155 46.6138C196.155 53.6409 189.955 57.5679 182.239 57.5679C177.347 57.5679 172.456 55.1566 168.598 51.2985L175.281 44.6159C177.21 46.9582 179.965 48.7495 182.239 48.9562C184.512 49.1628 186.441 48.1983 186.786 47.1649C187.613 44.547 182.859 44.4092 181.412 43.9958C175.97 42.3424 169.631 40.0689 169.631 33.3173C169.631 25.2568 178.036 22.501 182.239 22.501C187.061 22.501 191.953 24.7056 195.88 28.7015L189.266 35.3152C187.475 32.9729 184.375 31.1127 182.239 31.1127C181.137 31.1127 178.932 31.5261 178.932 33.7307V33.7307ZM232.764 37.5887V57.0167H222.568V37.5887C222.568 32.3528 221.19 30.1482 217.194 30.1482C213.061 30.1482 210.65 32.3528 210.65 37.5887V57.0167H200.453V7H210.65V26.7724C211.959 22.9833 216.919 22.501 219.881 22.501C229.389 22.501 232.764 27.1169 232.764 37.5887ZM254.63 30.9061C250.428 30.9061 246.914 34.6263 246.914 40.0689C246.914 45.4426 250.428 49.1628 254.63 49.1628C258.902 49.1628 262.415 45.4426 262.415 40.0689C262.415 34.6263 258.902 30.9061 254.63 30.9061V30.9061ZM254.63 22.501C264.62 22.501 272.611 30.0104 272.611 40.0689C272.611 50.1274 264.62 57.5679 254.63 57.5679C244.71 57.5679 236.718 50.1274 236.718 40.0689C236.718 30.0104 244.71 22.501 254.63 22.501ZM311.632 40.0689C311.632 50.1274 304.949 57.5679 294.959 57.5679C292.893 57.5679 288.828 56.3278 287.243 54.7432V73H277.047V22.9833H287.243V25.3946C288.69 23.6722 291.308 22.501 294.271 22.501C304.26 22.501 311.632 30.0104 311.632 40.0689V40.0689ZM301.367 40.0689C301.367 34.6263 297.853 30.2171 293.582 30.2171C290.964 30.2171 288.415 32.1461 287.037 34.9019C286.417 36.2798 285.934 38.2088 285.934 40.0689C285.934 41.9979 286.348 43.7203 287.037 45.167C288.483 47.9916 290.895 49.8518 293.582 49.8518C297.853 49.8518 301.367 45.4426 301.367 40.0689V40.0689Z" fill="#884FFB"/>
</svg>
