<svg width="72" height="80" viewBox="0 0 72 80" fill="none" xmlns="http://www.w3.org/2000/svg">
<path fill-rule="evenodd" clip-rule="evenodd" d="M4.44444 35.5556L17.7778 48.8889L31.1111 35.5556L17.7778 22.2223L4.44444 35.5556ZM17.7778 17.7778L35.5556 35.5556L17.7778 53.3334L0 35.5556L17.7778 17.7778Z" fill="#F64E60"/>
<path fill-rule="evenodd" clip-rule="evenodd" d="M17.7776 40.0001L22.222 35.5556L17.7776 31.1112L13.3331 35.5556L17.7776 40.0001ZM8.88867 35.5556L17.7776 26.6667L26.6664 35.5556L17.7776 44.4445L8.88867 35.5556Z" fill="#F64E60"/>
<path fill-rule="evenodd" clip-rule="evenodd" d="M57.7778 57.7779L40.0001 40.0001L22.2223 57.7779L40.0001 75.5557L57.7778 57.7779ZM62.2223 57.7779L40.0001 80.0001L17.7778 57.7779L40.0001 35.5557L62.2223 57.7779Z" fill="#F64E60"/>
<path fill-rule="evenodd" clip-rule="evenodd" d="M48.8887 57.7777L39.9998 48.8888L31.1109 57.7777L39.9998 66.6666L48.8887 57.7777ZM53.3332 57.7777L39.9998 71.111L26.6665 57.7777L39.9998 44.4443L53.3332 57.7777Z" fill="#F64E60"/>
<path fill-rule="evenodd" clip-rule="evenodd" d="M44.4446 57.7777L40.0001 62.2221L35.5557 57.7777L40.0001 53.3333L44.4446 57.7777Z" fill="#F64E60"/>
<path fill-rule="evenodd" clip-rule="evenodd" d="M31.1109 13.3333L39.9998 22.2222L48.8887 13.3333L39.9998 4.44445L31.1109 13.3333ZM26.6665 13.3333L39.9998 0L53.3332 13.3333L39.9998 26.6667L26.6665 13.3333Z" fill="#F64E60"/>
<path fill-rule="evenodd" clip-rule="evenodd" d="M35.5557 13.3334L40.0001 8.88892L44.4446 13.3334L40.0001 17.7778L35.5557 13.3334Z" fill="#F64E60"/>
<path fill-rule="evenodd" clip-rule="evenodd" d="M62.2224 31.1112L57.7779 35.5556L62.2224 40.0001L66.6668 35.5556L62.2224 31.1112ZM71.1113 35.5556L62.2224 44.4445L53.3335 35.5556L62.2224 26.6667L71.1113 35.5556Z" fill="#F64E60"/>
</svg>
